<svg width="374" height="374" xmlns="http://www.w3.org/2000/svg" xmlns:xlink="http://www.w3.org/1999/xlink" xml:space="preserve" overflow="hidden"><defs><clipPath id="clip0"><rect x="453" y="135" width="374" height="374"/></clipPath></defs><g clip-path="url(#clip0)" transform="translate(-453 -135)"><path d="M719.372 223.552C715.14 234.088 713.994 246.245 713.386 257.768 712.436 275.781 713.134 293.881 713.134 311.929L633.931 311.929C633.931 292.276 634.233 273.686 633.812 255.111 633.577 244.797 636.016 236.422 648.86 231.062L585.303 231.062C596.537 236.569 597.393 246.257 597.209 256.851 596.893 275.049 596.917 293.252 597.28 311.458 597.348 315.034 598.411 319.871 600.86 321.9 611.2 330.468 622.238 338.195 634.57 347.383L634.57 323.878 713.119 323.878C713.119 341.188 713.123 384.242 713.771 401.842L713.77 401.842C713.373 409.458 706.602 415.428 698.099 415.428L694.995 415.428 694.956 417.646 769.499 417.646 769.46 415.428 766.356 415.428C758.297 415.427 751.982 410.031 750.837 403.422 749.922 395.222 750.372 388.017 750.257 380.57 749.603 338.104 749.755 295.622 749.988 253.148 750.092 234.204 750.896 215.368 765.469 202.393 762.611 199.324 759.647 196.36 756.576 193.5 740.045 196.139 726.108 206.782 719.372 223.552Z"/><path d="M600.889 333.559C584.644 322.979 568.451 312.318 552.312 301.575 544.406 296.296 539.298 289.418 541.492 279.163 543.682 268.922 550.646 262.724 560.183 260.584 566.693 259.123 578.758 258.337 590.475 257.679 590.481 257.327 590.477 256.975 590.483 256.624L590.527 253.935C590.579 251.189 588.398 248.92 585.653 248.863 573.932 248.644 559.169 248.924 551.955 250.029 531.003 253.237 517.844 265.822 513.744 285.312 509.465 305.65 515.867 321.947 533.086 333.732 548.09 344.001 563.425 353.8 578.175 364.417 584.645 369.075 591.013 374.521 595.704 380.88 607.789 397.26 604.694 419.577 588.727 430.413 572.843 441.193 556.01 442.951 539.576 437.172 539.256 437.066 538.939 436.931 538.62 436.815 537.92 436.556 537.221 436.277 536.522 435.991 529.796 433.024 523.572 427.853 520.619 422.782 517.202 416.957 515.172 410.423 514.684 403.687 514.167 396.866 514.97 390.5 517.092 384.592 519.08 378.881 522.553 373.804 527.156 369.883 531.741 365.986 537.361 364.037 544.015 364.035 549.059 364.035 553.331 364.981 556.83 366.872 560.151 368.612 563.033 371.083 565.26 374.098 567.414 377.096 568.962 380.485 569.818 384.076 570.734 387.788 571.139 391.608 571.023 395.43 570.926 399.165 570.318 402.869 569.216 406.439 568.249 409.698 566.705 412.757 564.658 415.471L565.002 415.815C570.62 414.67 575.122 412.491 578.507 409.278 581.763 406.28 584.066 402.392 585.13 398.096 586.16 393.729 586.071 389.173 584.872 384.85 583.599 380.137 581.209 375.8 577.905 372.206 574.465 368.365 569.935 365.21 564.314 362.744 558.693 360.28 551.927 359.047 544.015 359.046 533.921 359.046 525.377 361.254 518.382 365.669 511.413 370.067 506.18 375.576 502.685 382.193 502.69 382.153 502.691 382.114 502.696 382.073L502.676 382.208C502.665 382.229 502.652 382.249 502.641 382.27 499.152 388.882 497.489 396.305 497.825 403.774 498.11 411.458 500.599 418.037 504.878 425.276 508.94 432.148 525.76 443.958 535.231 446.558L535.256 446.507C544.603 450.126 555.474 451.87 567.784 451.355 600.649 449.98 627.491 430.722 634.907 403.198 642.084 376.557 630.438 352.805 600.889 333.559Z"/><path d="M823.054 322C823.054 423.098 741.098 505.054 640 505.054 538.903 505.054 456.947 423.098 456.947 322 456.947 220.903 538.903 138.947 640 138.947 741.098 138.947 823.054 220.903 823.054 322Z" stroke="#231F20" stroke-width="7.89406" stroke-miterlimit="10" fill="none"/></g></svg>